# xmcd
#
# Track frame offsets:
#	150
#	14507
#	26825
#	40047
#	59647
#	71930
#	89112
#	103305
#	121335
#	136322
#	148122
#	159992
#	174202
#	191587
#	205495
#	217395
#	230247
#	245722
#	258065
#	273782
#
# Disc length: 3801 seconds
#
# Revision: 1
# Processed by: cddbd v1.5.1PL2 Copyright (c) Steve Scherf et al.
# Submitted via: audiograbber 1.83.01
#
DISCID=3e0ed714
DTITLE=Lex Vandyke and The Lone Rangers - COUNTY GUITAR
DYEAR=1996
DGENRE=Country
TTITLE0=(I Nerver Promised You A Rose Garden)
TTITLE1=Stand By Your Man
TTITLE2=The Most Beautiful Girl
TTITLE3=Yesterday Once More
TTITLE4=Crying Time
TTITLE5=Together Again
TTITLE6=Ruby, Don´t Take Your Love To Town
TTITLE7=Blue Bayou
TTITLE8=I Just Can´t  Help Believing
TTITLE9=Before The Next Teardrop Falls
TTITLE10=King Of The Road
TTITLE11=Vaya Con Dios
TTITLE12=Lyin´Eyes
TTITLE13=Let Your Love Flow
TTITLE14=Arms Of Mary
TTITLE15=These Boots Are Made For Walking
TTITLE16=Jackson
TTITLE17=Guitar Man
TTITLE18=Are Yoy Lonesome Tonight
TTITLE19=Love Me Tender
EXTD=
EXTT0=
EXTT1=
EXTT2=
EXTT3=
EXTT4=
EXTT5=
EXTT6=
EXTT7=
EXTT8=
EXTT9=
EXTT10=
EXTT11=
EXTT12=
EXTT13=
EXTT14=
EXTT15=
EXTT16=
EXTT17=
EXTT18=
EXTT19=
PLAYORDER=
